<svg xmlns="http://www.w3.org/2000/svg" width="250" height="250" viewBox="0 0 250 250">
<!-- SVG created with Arrow, by QuiverAI (https://quiver.ai) -->
  <path d="m0.9 0.11h248.2v249h-248.2v-249z" fill="#FEFFFE"/>
  <path d="m246.2 83.76 0.01 56.25-0.66-0.04c0-8.12 0.02-16.24-0.01-24.36-0.02-8.78-0.1-17.56-0.16-26.34-0.01-2.01-0.26-4.08 0.82-5.51z" fill="#F9FFFE"/>
  <path d="m246.3 209.2-0.01 37.81h-3.09c1.55-1.55 2.13-2.27 2.06-4.34-0.21-5.81-0.01-11.63-0.11-17.45-0.05-2.7 0.33-5.31 1.15-16.02z" fill="#FEFFFE"/>
  <path d="m120.1 42.92v3.78c0 0.56-0.45 1.02-1.01 1.02h-55.54c-0.69 0-1.24 0.55-1.24 1.24v142c0 0.63-0.31 0.94-0.93 0.94h-3.15c-0.63 0-0.8-0.43-0.8-1.05v-147.6c0-0.62 0.32-1.05 0.94-1.05h60.83c0.56 0 0.9 0.22 0.9 0.66z" fill="#42A4AC"/>
  <path d="m119.9 53.22v4.99c0 0.56-0.34 0.85-0.9 0.85h-43.59c-0.69 0-1.13 0.5-1.13 1.19v130.5c0 0.63-0.17 1.12-0.79 1.12h-4.88c-0.57 0-0.91-0.49-0.91-1.12v-136.8c0-0.63 0.44-1.18 1.06-1.18h50.24c0.56 0 0.9 0.01 0.9 0.46z" fill="#42A4AC"/>
  <path d="m119.8 65.41v3.15c0 0.62-0.55 0.93-1.17 0.93h-31.76c-0.62 0-1.07 0.55-1.07 1.18v38.2c0 0.62 0.32 1.06 0.94 1.06h29.43c0.62 0 0.95 0.38 0.95 1v3.31c0 0.62-0.5 0.94-1.13 0.94h-34.01c-0.62 0-1.06-0.32-1.06-0.94v-48.33c0-0.63 0.44-1.18 1.06-1.18h36.87c0.62 0 0.95 0.06 0.95 0.68z" fill="#42A4AC"/>
  <path d="m117.4 121.1v4.71c0 0.62-0.55 0.99-1.17 0.99h-34.12c-0.62 0-1.17-0.49-1.17-1.11v-4.02c0-0.63 0.55-1.3 1.17-1.3h34.34c0.62 0 0.95 0.18 0.95 0.73z" fill="#42A4AC"/>
  <path d="m117 132.7v3.59c0 0.63-0.55 1.12-1.17 1.12h-28.49c-0.62 0-1.3 0.55-1.3 1.17v51.8c0 0.62-0.27 1.32-0.89 1.32h-3.22c-0.62 0-1-0.55-1-1.17v-56.94c0-0.62 0.55-1.3 1.17-1.3h34c0.62 0 0.9-0.15 0.9 0.41z" fill="#42A4AC"/>
  <path d="m183.4 67.61h-62.43c-0.63 0-0.95 0.55-0.95 1.17v148.3c0 0.62 0.32 0.89 0.95 0.89h3.89v-143.6c0-0.69 0.55-1.14 1.24-1.14h56.67c0.63 0 0.86-0.44 0.86-1.06v-3.84c0-0.44 0.31-0.7-0.23-0.7z" fill="#42B67E"/>
  <path d="m183.2 79.41h-51c-0.63 0-1.28 0.22-1.28 0.84v137.6h5.83v-131.5c0-0.69 0.32-1.13 0.94-1.13h45.03c0.62 0 0.8-0.39 0.8-1.01v-4.16c0-0.56 0.24-0.71-0.32-0.71z" fill="#42B67E"/>
  <path d="m183.2 90.75h-38.47c-0.63 0-1.18 0.67-1.18 1.29v48.08c0 0.62 0.27 0.83 0.89 0.83h35.28c0.62 0 0.72-0.33 0.72-0.95v-3.26c0-0.62-0.38-1-1-1h-29.76c-0.62 0-0.94-0.32-0.94-0.94v-37.79c0-0.63 0.44-1.35 1.06-1.35h33.46c0.56 0 0.46-0.21 0.46-0.77v-3.15c0-0.62 0.04-0.99-0.52-0.99z" fill="#42B67E"/>
  <path d="m180.2 146.7h-35.45c-0.63 0-1.23 0.44-1.23 1.06v4.33c0 0.62 0.6 1.06 1.23 1.06h34.79c0.62 0 0.97-0.44 0.97-1.06v-4.66c0-0.56 0.24-0.73-0.31-0.73z" fill="#42B67E"/>
  <path d="m179.7 159h-34.89c-0.63 0-1.33 0.32-1.33 0.94v57.99h4.88c0.32 0 0.32-0.31 0.32-0.93v-51.3c0-0.62 0.44-1.34 1.06-1.34h29.96c0.62 0 0.57-0.44 0.57-1.06v-3.48c0-0.56-0.01-0.82-0.57-0.82z" fill="#42B67E"/>
</svg>